<svg width="1248" height="661" viewBox="0 0 1248 661" fill="none" xmlns="http://www.w3.org/2000/svg">
<rect width="1248" height="661" fill="white"/>
<path d="M325 0L464.75 82.9459L606.458 162.5L604.5 325L606.458 487.5L464.75 567.054L325 650L185.25 567.054L43.5417 487.5L45.5 325L43.5417 162.5L185.25 82.9459L325 0Z" fill="#003366"/>
<path d="M325 115L415.3 168.596L506.865 220L505.6 325L506.865 430L415.3 481.404L325 535L234.7 481.404L143.135 430L144.4 325L143.135 220L234.7 168.596L325 115Z" fill="white"/>
<path d="M522.382 115L607 162.564V488L248 290.235L522.382 115Z" fill="#F47209"/>
<path d="M248.01 289.983L527.217 443.759L509.987 474.226L234.051 314.914L248.01 289.983Z" fill="#003366"/>
<path d="M247.748 289.053L246.358 326.763L219.976 314.721L247.748 289.053Z" fill="white"/>
<path d="M725.137 252.717H705.215C704.647 249.45 703.599 246.555 702.072 244.034C700.545 241.477 698.646 239.311 696.373 237.536C694.1 235.76 691.508 234.428 688.596 233.54C685.719 232.617 682.612 232.156 679.274 232.156C673.344 232.156 668.088 233.647 663.507 236.63C658.926 239.577 655.339 243.91 652.747 249.627C650.155 255.309 648.859 262.251 648.859 270.455C648.859 278.8 650.155 285.831 652.747 291.548C655.375 297.23 658.962 301.527 663.507 304.439C668.088 307.315 673.326 308.754 679.221 308.754C682.488 308.754 685.542 308.327 688.383 307.475C691.259 306.587 693.834 305.291 696.107 303.587C698.415 301.882 700.35 299.787 701.913 297.301C703.511 294.815 704.612 291.974 705.215 288.778L725.137 288.885C724.391 294.07 722.776 298.935 720.29 303.48C717.839 308.026 714.626 312.038 710.648 315.518C706.671 318.963 702.019 321.662 696.692 323.615C691.366 325.533 685.453 326.491 678.955 326.491C669.366 326.491 660.808 324.272 653.28 319.833C645.751 315.394 639.821 308.984 635.489 300.604C631.156 292.223 628.99 282.173 628.99 270.455C628.99 258.7 631.174 248.651 635.542 240.305C639.91 231.925 645.858 225.515 653.386 221.076C660.915 216.637 669.438 214.418 678.955 214.418C685.027 214.418 690.673 215.27 695.893 216.974C701.114 218.679 705.766 221.183 709.849 224.485C713.933 227.752 717.289 231.765 719.917 236.523C722.58 241.246 724.32 246.644 725.137 252.717ZM742.382 325V243.182H761.665V325H742.382ZM752.077 231.57C749.023 231.57 746.395 230.558 744.193 228.533C741.992 226.474 740.891 224.006 740.891 221.129C740.891 218.217 741.992 215.749 744.193 213.725C746.395 211.665 749.023 210.636 752.077 210.636C755.166 210.636 757.794 211.665 759.96 213.725C762.162 215.749 763.263 218.217 763.263 221.129C763.263 224.006 762.162 226.474 759.96 228.533C757.794 230.558 755.166 231.57 752.077 231.57ZM817.183 326.598C809.015 326.598 802.001 324.805 796.142 321.218C790.318 317.631 785.826 312.678 782.665 306.357C779.54 300 777.978 292.685 777.978 284.411C777.978 276.101 779.576 268.768 782.772 262.411C785.968 256.019 790.478 251.048 796.302 247.496C802.161 243.91 809.086 242.116 817.076 242.116C823.717 242.116 829.594 243.342 834.707 245.792C839.857 248.207 843.958 251.634 847.012 256.072C850.066 260.476 851.806 265.625 852.232 271.52H833.802C833.056 267.578 831.281 264.293 828.475 261.665C825.705 259.002 821.994 257.67 817.342 257.67C813.401 257.67 809.938 258.736 806.955 260.866C803.972 262.962 801.646 265.98 799.977 269.922C798.344 273.864 797.527 278.587 797.527 284.091C797.527 289.666 798.344 294.46 799.977 298.473C801.611 302.45 803.901 305.522 806.849 307.688C809.832 309.819 813.33 310.884 817.342 310.884C820.183 310.884 822.722 310.352 824.96 309.286C827.232 308.185 829.132 306.605 830.659 304.545C832.186 302.486 833.234 299.982 833.802 297.035H852.232C851.771 302.823 850.066 307.955 847.119 312.429C844.171 316.868 840.158 320.348 835.08 322.869C830.002 325.355 824.036 326.598 817.183 326.598ZM903.755 326.598C895.587 326.598 888.574 324.805 882.714 321.218C876.89 317.631 872.398 312.678 869.238 306.357C866.113 300 864.55 292.685 864.55 284.411C864.55 276.101 866.148 268.768 869.344 262.411C872.54 256.019 877.05 251.048 882.874 247.496C888.733 243.91 895.658 242.116 903.648 242.116C910.289 242.116 916.166 243.342 921.28 245.792C926.429 248.207 930.53 251.634 933.584 256.072C936.638 260.476 938.378 265.625 938.805 271.52H920.374C919.628 267.578 917.853 264.293 915.047 261.665C912.278 259.002 908.567 257.67 903.915 257.67C899.973 257.67 896.51 258.736 893.528 260.866C890.545 262.962 888.219 265.98 886.55 269.922C884.916 273.864 884.099 278.587 884.099 284.091C884.099 289.666 884.916 294.46 886.55 298.473C888.183 302.45 890.474 305.522 893.421 307.688C896.404 309.819 899.902 310.884 903.915 310.884C906.756 310.884 909.295 310.352 911.532 309.286C913.805 308.185 915.704 306.605 917.231 304.545C918.758 302.486 919.806 299.982 920.374 297.035H938.805C938.343 302.823 936.638 307.955 933.691 312.429C930.743 316.868 926.731 320.348 921.653 322.869C916.574 325.355 910.608 326.598 903.755 326.598ZM990.327 326.598C982.337 326.598 975.412 324.84 969.553 321.325C963.694 317.809 959.148 312.891 955.917 306.57C952.721 300.249 951.123 292.862 951.123 284.411C951.123 275.959 952.721 268.555 955.917 262.198C959.148 255.842 963.694 250.906 969.553 247.39C975.412 243.874 982.337 242.116 990.327 242.116C998.317 242.116 1005.24 243.874 1011.1 247.39C1016.96 250.906 1021.49 255.842 1024.68 262.198C1027.92 268.555 1029.53 275.959 1029.53 284.411C1029.53 292.862 1027.92 300.249 1024.68 306.57C1021.49 312.891 1016.96 317.809 1011.1 321.325C1005.24 324.84 998.317 326.598 990.327 326.598ZM990.434 311.151C994.766 311.151 998.388 309.961 1001.3 307.582C1004.21 305.167 1006.38 301.935 1007.8 297.887C1009.25 293.839 1009.98 289.329 1009.98 284.357C1009.98 279.35 1009.25 274.822 1007.8 270.774C1006.38 266.69 1004.21 263.441 1001.3 261.026C998.388 258.612 994.766 257.404 990.434 257.404C985.995 257.404 982.301 258.612 979.354 261.026C976.442 263.441 974.258 266.69 972.802 270.774C971.382 274.822 970.672 279.35 970.672 284.357C970.672 289.329 971.382 293.839 972.802 297.887C974.258 301.935 976.442 305.167 979.354 307.582C982.301 309.961 985.995 311.151 990.434 311.151ZM1065.18 277.06V325H1045.9V243.182H1064.33V257.085H1065.29C1067.17 252.504 1070.17 248.864 1074.29 246.165C1078.44 243.466 1083.58 242.116 1089.68 242.116C1095.33 242.116 1100.25 243.324 1104.44 245.739C1108.66 248.153 1111.93 251.651 1114.24 256.232C1116.58 260.813 1117.74 266.371 1117.7 272.905V325H1098.42V275.888C1098.42 270.419 1097 266.14 1094.16 263.05C1091.35 259.961 1087.46 258.416 1082.49 258.416C1079.12 258.416 1076.12 259.162 1073.49 260.653C1070.9 262.109 1068.86 264.222 1067.36 266.992C1065.91 269.762 1065.18 273.118 1065.18 277.06ZM1173.53 326.598C1165.32 326.598 1158.24 324.893 1152.27 321.484C1146.34 318.04 1141.78 313.175 1138.58 306.889C1135.39 300.568 1133.79 293.129 1133.79 284.57C1133.79 276.154 1135.39 268.768 1138.58 262.411C1141.81 256.019 1146.32 251.048 1152.11 247.496C1157.9 243.91 1164.7 242.116 1172.51 242.116C1177.56 242.116 1182.31 242.933 1186.79 244.567C1191.3 246.165 1195.28 248.651 1198.72 252.024C1202.2 255.398 1204.94 259.695 1206.92 264.915C1208.91 270.099 1209.91 276.278 1209.91 283.452V289.364H1142.84V276.367H1191.42C1191.39 272.674 1190.59 269.389 1189.03 266.513C1187.46 263.601 1185.28 261.31 1182.47 259.641C1179.7 257.972 1176.47 257.138 1172.78 257.138C1168.84 257.138 1165.38 258.097 1162.39 260.014C1159.41 261.896 1157.08 264.382 1155.41 267.472C1153.78 270.526 1152.95 273.881 1152.91 277.539V288.885C1152.91 293.643 1153.78 297.727 1155.52 301.136C1157.26 304.51 1159.69 307.102 1162.82 308.913C1165.94 310.689 1169.6 311.577 1173.79 311.577C1176.6 311.577 1179.14 311.186 1181.41 310.405C1183.68 309.588 1185.65 308.398 1187.32 306.836C1188.99 305.273 1190.25 303.338 1191.1 301.03L1209.11 303.054C1207.97 307.812 1205.81 311.967 1202.61 315.518C1199.45 319.034 1195.4 321.768 1190.46 323.722C1185.53 325.639 1179.88 326.598 1173.53 326.598Z" fill="#003366"/>
<path d="M662.359 361.464C662.094 359.111 661 357.288 659.078 355.996C657.156 354.687 654.736 354.032 651.82 354.032C649.732 354.032 647.925 354.363 646.401 355.026C644.876 355.673 643.691 356.567 642.846 357.711C642.017 358.838 641.603 360.122 641.603 361.564C641.603 362.774 641.885 363.818 642.448 364.696C643.028 365.574 643.782 366.312 644.71 366.908C645.655 367.488 646.666 367.977 647.743 368.375C648.82 368.756 649.856 369.071 650.85 369.32L655.822 370.612C657.446 371.01 659.111 371.549 660.818 372.228C662.525 372.907 664.108 373.802 665.566 374.913C667.024 376.023 668.201 377.398 669.096 379.039C670.007 380.68 670.463 382.643 670.463 384.93C670.463 387.814 669.717 390.374 668.226 392.612C666.751 394.849 664.605 396.614 661.788 397.906C658.987 399.199 655.598 399.845 651.621 399.845C647.809 399.845 644.511 399.24 641.727 398.031C638.943 396.821 636.764 395.106 635.19 392.885C633.615 390.648 632.745 387.996 632.58 384.93H640.286C640.435 386.77 641.031 388.303 642.075 389.529C643.136 390.739 644.487 391.642 646.127 392.239C647.784 392.819 649.599 393.109 651.571 393.109C653.742 393.109 655.673 392.769 657.363 392.089C659.07 391.393 660.412 390.432 661.39 389.206C662.368 387.963 662.857 386.513 662.857 384.856C662.857 383.348 662.426 382.113 661.564 381.152C660.719 380.191 659.567 379.395 658.109 378.766C656.667 378.136 655.035 377.581 653.212 377.1L647.196 375.46C643.119 374.349 639.888 372.717 637.501 370.562C635.132 368.408 633.947 365.558 633.947 362.011C633.947 359.078 634.742 356.518 636.333 354.33C637.924 352.143 640.078 350.444 642.796 349.234C645.514 348.008 648.58 347.395 651.994 347.395C655.441 347.395 658.482 348 661.116 349.21C663.768 350.419 665.856 352.085 667.381 354.206C668.905 356.311 669.701 358.73 669.767 361.464H662.359ZM695.128 399.771C691.549 399.771 688.425 398.95 685.757 397.31C683.089 395.669 681.017 393.374 679.542 390.424C678.068 387.474 677.33 384.027 677.33 380.083C677.33 376.122 678.068 372.659 679.542 369.692C681.017 366.726 683.089 364.423 685.757 362.782C688.425 361.141 691.549 360.321 695.128 360.321C698.708 360.321 701.832 361.141 704.5 362.782C707.168 364.423 709.239 366.726 710.714 369.692C712.189 372.659 712.927 376.122 712.927 380.083C712.927 384.027 712.189 387.474 710.714 390.424C709.239 393.374 707.168 395.669 704.5 397.31C701.832 398.95 698.708 399.771 695.128 399.771ZM695.153 393.531C697.473 393.531 699.396 392.918 700.92 391.692C702.445 390.465 703.572 388.833 704.301 386.795C705.047 384.756 705.42 382.511 705.42 380.058C705.42 377.622 705.047 375.385 704.301 373.347C703.572 371.292 702.445 369.643 700.92 368.4C699.396 367.157 697.473 366.536 695.153 366.536C692.817 366.536 690.878 367.157 689.336 368.4C687.812 369.643 686.677 371.292 685.931 373.347C685.202 375.385 684.837 377.622 684.837 380.058C684.837 382.511 685.202 384.756 685.931 386.795C686.677 388.833 687.812 390.465 689.336 391.692C690.878 392.918 692.817 393.531 695.153 393.531ZM739.394 360.818V366.784H717.817V360.818H739.394ZM723.734 399V356.393C723.734 354.007 724.256 352.027 725.3 350.452C726.344 348.862 727.728 347.677 729.451 346.898C731.174 346.102 733.047 345.705 735.069 345.705C736.56 345.705 737.836 345.829 738.897 346.077C739.958 346.309 740.745 346.525 741.259 346.724L739.518 352.739C739.17 352.64 738.723 352.524 738.176 352.391C737.629 352.242 736.966 352.168 736.188 352.168C734.381 352.168 733.089 352.615 732.31 353.51C731.547 354.405 731.166 355.697 731.166 357.388V399H723.734ZM764.886 360.818V366.784H744.03V360.818H764.886ZM749.623 351.67H757.056V387.789C757.056 389.231 757.271 390.316 757.702 391.045C758.133 391.758 758.688 392.247 759.368 392.512C760.064 392.761 760.818 392.885 761.63 392.885C762.226 392.885 762.748 392.844 763.196 392.761C763.643 392.678 763.991 392.612 764.24 392.562L765.582 398.702C765.151 398.867 764.538 399.033 763.743 399.199C762.947 399.381 761.953 399.481 760.76 399.497C758.804 399.53 756.981 399.182 755.291 398.453C753.6 397.724 752.233 396.597 751.189 395.072C750.145 393.548 749.623 391.634 749.623 389.33V351.67ZM781.385 399L770.15 360.818H777.831L785.313 388.858H785.686L793.193 360.818H800.874L808.331 388.734H808.704L816.137 360.818H823.818L812.607 399H805.025L797.27 371.433H796.698L788.942 399H781.385ZM841.983 399.845C839.563 399.845 837.376 399.398 835.42 398.503C833.465 397.591 831.915 396.274 830.772 394.55C829.645 392.827 829.082 390.714 829.082 388.212C829.082 386.057 829.496 384.284 830.325 382.892C831.153 381.5 832.272 380.398 833.68 379.586C835.089 378.774 836.663 378.161 838.403 377.746C840.143 377.332 841.917 377.017 843.723 376.802C846.01 376.537 847.866 376.321 849.291 376.156C850.716 375.973 851.752 375.683 852.398 375.286C853.045 374.888 853.368 374.241 853.368 373.347V373.173C853.368 371.002 852.755 369.32 851.528 368.126C850.319 366.933 848.512 366.337 846.109 366.337C843.607 366.337 841.635 366.892 840.193 368.002C838.768 369.096 837.782 370.314 837.235 371.656L830.25 370.065C831.079 367.745 832.288 365.873 833.879 364.447C835.487 363.006 837.335 361.962 839.423 361.315C841.511 360.652 843.706 360.321 846.01 360.321C847.535 360.321 849.15 360.503 850.857 360.868C852.581 361.216 854.188 361.862 855.68 362.807C857.188 363.751 858.422 365.102 859.384 366.859C860.345 368.599 860.825 370.861 860.825 373.645V399H853.567V393.78H853.268C852.788 394.741 852.067 395.686 851.106 396.614C850.145 397.542 848.91 398.312 847.402 398.925C845.894 399.539 844.088 399.845 841.983 399.845ZM843.599 393.879C845.654 393.879 847.41 393.473 848.869 392.661C850.344 391.849 851.462 390.789 852.224 389.479C853.003 388.154 853.393 386.737 853.393 385.229V380.307C853.128 380.572 852.614 380.821 851.852 381.053C851.106 381.268 850.252 381.459 849.291 381.624C848.33 381.773 847.394 381.914 846.482 382.047C845.571 382.163 844.808 382.262 844.195 382.345C842.754 382.527 841.436 382.834 840.243 383.265C839.066 383.696 838.122 384.317 837.409 385.129C836.713 385.925 836.365 386.985 836.365 388.311C836.365 390.151 837.045 391.543 838.403 392.487C839.762 393.415 841.494 393.879 843.599 393.879ZM870.725 399V360.818H877.909V366.884H878.307C879.003 364.829 880.229 363.213 881.986 362.036C883.759 360.843 885.764 360.246 888.001 360.246C888.465 360.246 889.012 360.263 889.642 360.296C890.288 360.329 890.794 360.371 891.158 360.42V367.53C890.86 367.447 890.33 367.356 889.567 367.256C888.805 367.14 888.043 367.082 887.28 367.082C885.524 367.082 883.958 367.455 882.582 368.201C881.223 368.93 880.146 369.949 879.351 371.259C878.555 372.551 878.157 374.026 878.157 375.683V399H870.725ZM912.679 399.771C908.917 399.771 905.677 398.967 902.96 397.359C900.258 395.735 898.17 393.457 896.695 390.523C895.237 387.574 894.508 384.118 894.508 380.158C894.508 376.247 895.237 372.8 896.695 369.817C898.17 366.834 900.225 364.505 902.86 362.832C905.512 361.158 908.611 360.321 912.157 360.321C914.311 360.321 916.399 360.677 918.421 361.39C920.443 362.103 922.258 363.221 923.865 364.746C925.473 366.27 926.74 368.251 927.668 370.687C928.596 373.106 929.06 376.048 929.06 379.511V382.146H898.709V376.578H921.777C921.777 374.623 921.379 372.891 920.584 371.383C919.788 369.858 918.67 368.657 917.228 367.778C915.803 366.9 914.129 366.461 912.207 366.461C910.119 366.461 908.296 366.975 906.738 368.002C905.197 369.013 904.004 370.339 903.158 371.979C902.33 373.603 901.915 375.368 901.915 377.274V381.624C901.915 384.176 902.363 386.347 903.258 388.137C904.169 389.927 905.437 391.294 907.061 392.239C908.685 393.167 910.583 393.631 912.754 393.631C914.162 393.631 915.446 393.432 916.607 393.034C917.767 392.62 918.769 392.007 919.614 391.195C920.46 390.383 921.106 389.38 921.553 388.187L928.588 389.455C928.025 391.526 927.014 393.341 925.555 394.898C924.114 396.44 922.299 397.641 920.112 398.503C917.941 399.348 915.463 399.771 912.679 399.771ZM984.195 361.464C983.93 359.111 982.836 357.288 980.914 355.996C978.992 354.687 976.572 354.032 973.656 354.032C971.567 354.032 969.761 354.363 968.237 355.026C966.712 355.673 965.527 356.567 964.682 357.711C963.853 358.838 963.439 360.122 963.439 361.564C963.439 362.774 963.721 363.818 964.284 364.696C964.864 365.574 965.618 366.312 966.546 366.908C967.491 367.488 968.502 367.977 969.579 368.375C970.656 368.756 971.692 369.071 972.686 369.32L977.658 370.612C979.282 371.01 980.947 371.549 982.654 372.228C984.361 372.907 985.944 373.802 987.402 374.913C988.86 376.023 990.037 377.398 990.932 379.039C991.843 380.68 992.299 382.643 992.299 384.93C992.299 387.814 991.553 390.374 990.062 392.612C988.587 394.849 986.441 396.614 983.624 397.906C980.823 399.199 977.434 399.845 973.457 399.845C969.645 399.845 966.347 399.24 963.563 398.031C960.779 396.821 958.6 395.106 957.026 392.885C955.451 390.648 954.581 387.996 954.415 384.93H962.121C962.271 386.77 962.867 388.303 963.911 389.529C964.972 390.739 966.322 391.642 967.963 392.239C969.62 392.819 971.435 393.109 973.407 393.109C975.578 393.109 977.509 392.769 979.199 392.089C980.906 391.393 982.248 390.432 983.226 389.206C984.204 387.963 984.692 386.513 984.692 384.856C984.692 383.348 984.262 382.113 983.4 381.152C982.555 380.191 981.403 379.395 979.945 378.766C978.503 378.136 976.871 377.581 975.048 377.1L969.032 375.46C964.955 374.349 961.724 372.717 959.337 370.562C956.968 368.408 955.783 365.558 955.783 362.011C955.783 359.078 956.578 356.518 958.169 354.33C959.76 352.143 961.914 350.444 964.632 349.234C967.35 348.008 970.416 347.395 973.83 347.395C977.277 347.395 980.317 348 982.952 349.21C985.604 350.419 987.692 352.085 989.217 354.206C990.741 356.311 991.537 358.73 991.603 361.464H984.195ZM1016.96 399.771C1013.38 399.771 1010.26 398.95 1007.59 397.31C1004.92 395.669 1002.85 393.374 1001.38 390.424C999.903 387.474 999.166 384.027 999.166 380.083C999.166 376.122 999.903 372.659 1001.38 369.692C1002.85 366.726 1004.92 364.423 1007.59 362.782C1010.26 361.141 1013.38 360.321 1016.96 360.321C1020.54 360.321 1023.67 361.141 1026.34 362.782C1029 364.423 1031.08 366.726 1032.55 369.692C1034.03 372.659 1034.76 376.122 1034.76 380.083C1034.76 384.027 1034.03 387.474 1032.55 390.424C1031.08 393.374 1029 395.669 1026.34 397.31C1023.67 398.95 1020.54 399.771 1016.96 399.771ZM1016.99 393.531C1019.31 393.531 1021.23 392.918 1022.76 391.692C1024.28 390.465 1025.41 388.833 1026.14 386.795C1026.88 384.756 1027.26 382.511 1027.26 380.058C1027.26 377.622 1026.88 375.385 1026.14 373.347C1025.41 371.292 1024.28 369.643 1022.76 368.4C1021.23 367.157 1019.31 366.536 1016.99 366.536C1014.65 366.536 1012.71 367.157 1011.17 368.4C1009.65 369.643 1008.51 371.292 1007.77 373.347C1007.04 375.385 1006.67 377.622 1006.67 380.058C1006.67 382.511 1007.04 384.756 1007.77 386.795C1008.51 388.833 1009.65 390.465 1011.17 391.692C1012.71 392.918 1014.65 393.531 1016.99 393.531ZM1050.49 348.091V399H1043.06V348.091H1050.49ZM1084.68 383.165V360.818H1092.13V399H1084.83V392.388H1084.43C1083.55 394.426 1082.14 396.125 1080.2 397.484C1078.28 398.826 1075.89 399.497 1073.02 399.497C1070.57 399.497 1068.4 398.959 1066.51 397.881C1064.63 396.788 1063.16 395.172 1062.08 393.034C1061.02 390.896 1060.49 388.253 1060.49 385.104V360.818H1067.92V384.21C1067.92 386.811 1068.64 388.883 1070.09 390.424C1071.53 391.965 1073.4 392.736 1075.7 392.736C1077.1 392.736 1078.48 392.388 1079.85 391.692C1081.25 390.996 1082.4 389.943 1083.31 388.535C1084.24 387.126 1084.69 385.336 1084.68 383.165ZM1119.94 360.818V366.784H1099.09V360.818H1119.94ZM1104.68 351.67H1112.11V387.789C1112.11 389.231 1112.33 390.316 1112.76 391.045C1113.19 391.758 1113.75 392.247 1114.43 392.512C1115.12 392.761 1115.88 392.885 1116.69 392.885C1117.28 392.885 1117.81 392.844 1118.25 392.761C1118.7 392.678 1119.05 392.612 1119.3 392.562L1120.64 398.702C1120.21 398.867 1119.6 399.033 1118.8 399.199C1118.01 399.381 1117.01 399.481 1115.82 399.497C1113.86 399.53 1112.04 399.182 1110.35 398.453C1108.66 397.724 1107.29 396.597 1106.25 395.072C1105.2 393.548 1104.68 391.634 1104.68 389.33V351.67ZM1128.17 399V360.818H1135.6V399H1128.17ZM1131.92 354.927C1130.63 354.927 1129.52 354.496 1128.59 353.634C1127.68 352.756 1127.22 351.712 1127.22 350.502C1127.22 349.276 1127.68 348.232 1128.59 347.37C1129.52 346.492 1130.63 346.053 1131.92 346.053C1133.21 346.053 1134.31 346.492 1135.23 347.37C1136.15 348.232 1136.62 349.276 1136.62 350.502C1136.62 351.712 1136.15 352.756 1135.23 353.634C1134.31 354.496 1133.21 354.927 1131.92 354.927ZM1161.68 399.771C1158.1 399.771 1154.98 398.95 1152.31 397.31C1149.64 395.669 1147.57 393.374 1146.1 390.424C1144.62 387.474 1143.88 384.027 1143.88 380.083C1143.88 376.122 1144.62 372.659 1146.1 369.692C1147.57 366.726 1149.64 364.423 1152.31 362.782C1154.98 361.141 1158.1 360.321 1161.68 360.321C1165.26 360.321 1168.38 361.141 1171.05 362.782C1173.72 364.423 1175.79 366.726 1177.27 369.692C1178.74 372.659 1179.48 376.122 1179.48 380.083C1179.48 384.027 1178.74 387.474 1177.27 390.424C1175.79 393.374 1173.72 395.669 1171.05 397.31C1168.38 398.95 1165.26 399.771 1161.68 399.771ZM1161.71 393.531C1164.03 393.531 1165.95 392.918 1167.47 391.692C1169 390.465 1170.12 388.833 1170.85 386.795C1171.6 384.756 1171.97 382.511 1171.97 380.058C1171.97 377.622 1171.6 375.385 1170.85 373.347C1170.12 371.292 1169 369.643 1167.47 368.4C1165.95 367.157 1164.03 366.536 1161.71 366.536C1159.37 366.536 1157.43 367.157 1155.89 368.4C1154.36 369.643 1153.23 371.292 1152.48 373.347C1151.75 375.385 1151.39 377.622 1151.39 380.058C1151.39 382.511 1151.75 384.756 1152.48 386.795C1153.23 388.833 1154.36 390.465 1155.89 391.692C1157.43 392.918 1159.37 393.531 1161.71 393.531ZM1195.21 376.33V399H1187.78V360.818H1194.91V367.033H1195.38C1196.26 365.011 1197.64 363.387 1199.51 362.161C1201.4 360.934 1203.78 360.321 1206.64 360.321C1209.24 360.321 1211.52 360.868 1213.48 361.962C1215.43 363.039 1216.95 364.646 1218.03 366.784C1219.11 368.922 1219.64 371.565 1219.64 374.714V399H1212.21V375.609C1212.21 372.841 1211.49 370.679 1210.05 369.121C1208.61 367.546 1206.63 366.759 1204.11 366.759C1202.38 366.759 1200.85 367.132 1199.51 367.878C1198.18 368.624 1197.13 369.717 1196.35 371.159C1195.59 372.584 1195.21 374.308 1195.21 376.33Z" fill="#F47209"/>
</svg>
