<svg width="1167" height="650" viewBox="0 0 1167 650" fill="none" xmlns="http://www.w3.org/2000/svg">
<rect width="1167" height="650" fill="white"/>
<path d="M282 0L421.75 82.9459L563.458 162.5L561.5 325L563.458 487.5L421.75 567.054L282 650L142.25 567.054L0.541748 487.5L2.5 325L0.541748 162.5L142.25 82.9459L282 0Z" fill="#003366"/>
<path d="M282 115L372.3 168.596L463.865 220L462.6 325L463.865 430L372.3 481.404L282 535L191.7 481.404L100.135 430L101.4 325L100.135 220L191.7 168.596L282 115Z" fill="white"/>
<path d="M479.382 115L564 162.564V488L205 290.235L479.382 115Z" fill="#F47209"/>
<path d="M205.01 289.983L484.217 443.759L466.987 474.226L191.051 314.914L205.01 289.983Z" fill="#003366"/>
<path d="M204.748 289.053L203.358 326.763L176.976 314.721L204.748 289.053Z" fill="white"/>
<path d="M682.137 252.717H662.215C661.647 249.45 660.599 246.555 659.072 244.034C657.545 241.477 655.646 239.311 653.373 237.536C651.1 235.76 648.508 234.428 645.596 233.54C642.719 232.617 639.612 232.156 636.274 232.156C630.344 232.156 625.088 233.647 620.507 236.63C615.926 239.577 612.339 243.91 609.747 249.627C607.155 255.309 605.859 262.251 605.859 270.455C605.859 278.8 607.155 285.831 609.747 291.548C612.375 297.23 615.962 301.527 620.507 304.439C625.088 307.315 630.326 308.754 636.221 308.754C639.488 308.754 642.542 308.327 645.383 307.475C648.259 306.587 650.834 305.291 653.107 303.587C655.415 301.882 657.35 299.787 658.913 297.301C660.511 294.815 661.612 291.974 662.215 288.778L682.137 288.885C681.391 294.07 679.776 298.935 677.29 303.48C674.839 308.026 671.626 312.038 667.648 315.518C663.671 318.963 659.019 321.662 653.692 323.615C648.366 325.533 642.453 326.491 635.955 326.491C626.366 326.491 617.808 324.272 610.28 319.833C602.751 315.394 596.821 308.984 592.489 300.604C588.156 292.223 585.99 282.173 585.99 270.455C585.99 258.7 588.174 248.651 592.542 240.305C596.91 231.925 602.858 225.515 610.386 221.076C617.915 216.637 626.438 214.418 635.955 214.418C642.027 214.418 647.673 215.27 652.893 216.974C658.114 218.679 662.766 221.183 666.849 224.485C670.933 227.752 674.289 231.765 676.917 236.523C679.58 241.246 681.32 246.644 682.137 252.717ZM699.382 325V243.182H718.665V325H699.382ZM709.077 231.57C706.023 231.57 703.395 230.558 701.193 228.533C698.992 226.474 697.891 224.006 697.891 221.129C697.891 218.217 698.992 215.749 701.193 213.725C703.395 211.665 706.023 210.636 709.077 210.636C712.166 210.636 714.794 211.665 716.96 213.725C719.162 215.749 720.263 218.217 720.263 221.129C720.263 224.006 719.162 226.474 716.96 228.533C714.794 230.558 712.166 231.57 709.077 231.57ZM774.183 326.598C766.015 326.598 759.001 324.805 753.142 321.218C747.318 317.631 742.826 312.678 739.665 306.357C736.54 300 734.978 292.685 734.978 284.411C734.978 276.101 736.576 268.768 739.772 262.411C742.968 256.019 747.478 251.048 753.302 247.496C759.161 243.91 766.086 242.116 774.076 242.116C780.717 242.116 786.594 243.342 791.707 245.792C796.857 248.207 800.958 251.634 804.012 256.072C807.066 260.476 808.806 265.625 809.232 271.52H790.802C790.056 267.578 788.281 264.293 785.475 261.665C782.705 259.002 778.994 257.67 774.342 257.67C770.401 257.67 766.938 258.736 763.955 260.866C760.972 262.962 758.646 265.98 756.977 269.922C755.344 273.864 754.527 278.587 754.527 284.091C754.527 289.666 755.344 294.46 756.977 298.473C758.611 302.45 760.901 305.522 763.849 307.688C766.832 309.819 770.33 310.884 774.342 310.884C777.183 310.884 779.722 310.352 781.96 309.286C784.232 308.185 786.132 306.605 787.659 304.545C789.186 302.486 790.234 299.982 790.802 297.035H809.232C808.771 302.823 807.066 307.955 804.119 312.429C801.171 316.868 797.158 320.348 792.08 322.869C787.002 325.355 781.036 326.598 774.183 326.598ZM860.755 326.598C852.587 326.598 845.574 324.805 839.714 321.218C833.89 317.631 829.398 312.678 826.238 306.357C823.113 300 821.55 292.685 821.55 284.411C821.55 276.101 823.148 268.768 826.344 262.411C829.54 256.019 834.05 251.048 839.874 247.496C845.733 243.91 852.658 242.116 860.648 242.116C867.289 242.116 873.166 243.342 878.28 245.792C883.429 248.207 887.53 251.634 890.584 256.072C893.638 260.476 895.378 265.625 895.805 271.52H877.374C876.628 267.578 874.853 264.293 872.047 261.665C869.278 259.002 865.567 257.67 860.915 257.67C856.973 257.67 853.51 258.736 850.528 260.866C847.545 262.962 845.219 265.98 843.55 269.922C841.916 273.864 841.099 278.587 841.099 284.091C841.099 289.666 841.916 294.46 843.55 298.473C845.183 302.45 847.474 305.522 850.421 307.688C853.404 309.819 856.902 310.884 860.915 310.884C863.756 310.884 866.295 310.352 868.532 309.286C870.805 308.185 872.704 306.605 874.231 304.545C875.758 302.486 876.806 299.982 877.374 297.035H895.805C895.343 302.823 893.638 307.955 890.691 312.429C887.743 316.868 883.731 320.348 878.653 322.869C873.574 325.355 867.608 326.598 860.755 326.598ZM947.327 326.598C939.337 326.598 932.412 324.84 926.553 321.325C920.694 317.809 916.148 312.891 912.917 306.57C909.721 300.249 908.123 292.862 908.123 284.411C908.123 275.959 909.721 268.555 912.917 262.198C916.148 255.842 920.694 250.906 926.553 247.39C932.412 243.874 939.337 242.116 947.327 242.116C955.317 242.116 962.242 243.874 968.101 247.39C973.961 250.906 978.488 255.842 981.684 262.198C984.916 268.555 986.532 275.959 986.532 284.411C986.532 292.862 984.916 300.249 981.684 306.57C978.488 312.891 973.961 317.809 968.101 321.325C962.242 324.84 955.317 326.598 947.327 326.598ZM947.434 311.151C951.766 311.151 955.388 309.961 958.3 307.582C961.212 305.167 963.378 301.935 964.799 297.887C966.255 293.839 966.983 289.329 966.983 284.357C966.983 279.35 966.255 274.822 964.799 270.774C963.378 266.69 961.212 263.441 958.3 261.026C955.388 258.612 951.766 257.404 947.434 257.404C942.995 257.404 939.301 258.612 936.354 261.026C933.442 263.441 931.258 266.69 929.802 270.774C928.382 274.822 927.672 279.35 927.672 284.357C927.672 289.329 928.382 293.839 929.802 297.887C931.258 301.935 933.442 305.167 936.354 307.582C939.301 309.961 942.995 311.151 947.434 311.151ZM1022.18 277.06V325H1002.9V243.182H1021.33V257.085H1022.29C1024.17 252.504 1027.17 248.864 1031.29 246.165C1035.44 243.466 1040.58 242.116 1046.68 242.116C1052.33 242.116 1057.25 243.324 1061.44 245.739C1065.66 248.153 1068.93 251.651 1071.24 256.232C1073.58 260.813 1074.74 266.371 1074.7 272.905V325H1055.42V275.888C1055.42 270.419 1054 266.14 1051.16 263.05C1048.35 259.961 1044.46 258.416 1039.49 258.416C1036.12 258.416 1033.12 259.162 1030.49 260.653C1027.9 262.109 1025.86 264.222 1024.36 266.992C1022.91 269.762 1022.18 273.118 1022.18 277.06ZM1130.53 326.598C1122.32 326.598 1115.24 324.893 1109.27 321.484C1103.34 318.04 1098.78 313.175 1095.58 306.889C1092.39 300.568 1090.79 293.129 1090.79 284.57C1090.79 276.154 1092.39 268.768 1095.58 262.411C1098.81 256.019 1103.32 251.048 1109.11 247.496C1114.9 243.91 1121.7 242.116 1129.51 242.116C1134.56 242.116 1139.31 242.933 1143.79 244.567C1148.3 246.165 1152.28 248.651 1155.72 252.024C1159.2 255.398 1161.94 259.695 1163.92 264.915C1165.91 270.099 1166.91 276.278 1166.91 283.452V289.364H1099.84V276.367H1148.42C1148.39 272.674 1147.59 269.389 1146.03 266.513C1144.46 263.601 1142.28 261.31 1139.47 259.641C1136.7 257.972 1133.47 257.138 1129.78 257.138C1125.84 257.138 1122.38 258.097 1119.39 260.014C1116.41 261.896 1114.08 264.382 1112.41 267.472C1110.78 270.526 1109.95 273.881 1109.91 277.539V288.885C1109.91 293.643 1110.78 297.727 1112.52 301.136C1114.26 304.51 1116.69 307.102 1119.82 308.913C1122.94 310.689 1126.6 311.577 1130.79 311.577C1133.6 311.577 1136.14 311.186 1138.41 310.405C1140.68 309.588 1142.65 308.398 1144.32 306.836C1145.99 305.273 1147.25 303.338 1148.1 301.03L1166.11 303.054C1164.97 307.812 1162.81 311.967 1159.61 315.518C1156.45 319.034 1152.4 321.768 1147.46 323.722C1142.53 325.639 1136.88 326.598 1130.53 326.598Z" fill="#003366"/>
<path d="M616.5 358.682C616.258 356.53 615.258 354.864 613.5 353.682C611.742 352.485 609.53 351.886 606.864 351.886C604.955 351.886 603.303 352.189 601.909 352.795C600.515 353.386 599.432 354.205 598.659 355.25C597.902 356.28 597.523 357.455 597.523 358.773C597.523 359.879 597.78 360.833 598.295 361.636C598.826 362.439 599.515 363.114 600.364 363.659C601.227 364.189 602.152 364.636 603.136 365C604.121 365.348 605.068 365.636 605.977 365.864L610.523 367.045C612.008 367.409 613.53 367.902 615.091 368.523C616.652 369.144 618.098 369.962 619.432 370.977C620.765 371.992 621.841 373.25 622.659 374.75C623.492 376.25 623.909 378.045 623.909 380.136C623.909 382.773 623.227 385.114 621.864 387.159C620.515 389.205 618.553 390.818 615.977 392C613.417 393.182 610.318 393.773 606.682 393.773C603.197 393.773 600.182 393.22 597.636 392.114C595.091 391.008 593.098 389.439 591.659 387.409C590.22 385.364 589.424 382.939 589.273 380.136H596.318C596.455 381.818 597 383.22 597.955 384.341C598.924 385.447 600.159 386.273 601.659 386.818C603.174 387.348 604.833 387.614 606.636 387.614C608.621 387.614 610.386 387.303 611.932 386.682C613.492 386.045 614.72 385.167 615.614 384.045C616.508 382.909 616.955 381.583 616.955 380.068C616.955 378.689 616.561 377.561 615.773 376.682C615 375.803 613.947 375.076 612.614 374.5C611.295 373.924 609.803 373.417 608.136 372.977L602.636 371.477C598.909 370.462 595.955 368.97 593.773 367C591.606 365.03 590.523 362.424 590.523 359.182C590.523 356.5 591.25 354.159 592.705 352.159C594.159 350.159 596.129 348.606 598.614 347.5C601.098 346.379 603.902 345.818 607.023 345.818C610.174 345.818 612.955 346.371 615.364 347.477C617.788 348.583 619.697 350.106 621.091 352.045C622.485 353.97 623.212 356.182 623.273 358.682H616.5ZM646.46 393.705C643.188 393.705 640.331 392.955 637.892 391.455C635.453 389.955 633.559 387.856 632.21 385.159C630.862 382.462 630.188 379.311 630.188 375.705C630.188 372.083 630.862 368.917 632.21 366.205C633.559 363.492 635.453 361.386 637.892 359.886C640.331 358.386 643.188 357.636 646.46 357.636C649.733 357.636 652.589 358.386 655.028 359.886C657.468 361.386 659.362 363.492 660.71 366.205C662.059 368.917 662.733 372.083 662.733 375.705C662.733 379.311 662.059 382.462 660.71 385.159C659.362 387.856 657.468 389.955 655.028 391.455C652.589 392.955 649.733 393.705 646.46 393.705ZM646.483 388C648.604 388 650.362 387.439 651.756 386.318C653.15 385.197 654.18 383.705 654.847 381.841C655.528 379.977 655.869 377.924 655.869 375.682C655.869 373.455 655.528 371.409 654.847 369.545C654.18 367.667 653.15 366.159 651.756 365.023C650.362 363.886 648.604 363.318 646.483 363.318C644.347 363.318 642.574 363.886 641.165 365.023C639.771 366.159 638.733 367.667 638.051 369.545C637.384 371.409 637.051 373.455 637.051 375.682C637.051 377.924 637.384 379.977 638.051 381.841C638.733 383.705 639.771 385.197 641.165 386.318C642.574 387.439 644.347 388 646.483 388ZM686.932 358.091V363.545H667.205V358.091H686.932ZM672.614 393V354.045C672.614 351.864 673.091 350.053 674.045 348.614C675 347.159 676.265 346.076 677.841 345.364C679.417 344.636 681.129 344.273 682.977 344.273C684.341 344.273 685.508 344.386 686.477 344.614C687.447 344.826 688.167 345.023 688.636 345.205L687.045 350.705C686.727 350.614 686.318 350.508 685.818 350.386C685.318 350.25 684.712 350.182 684 350.182C682.348 350.182 681.167 350.591 680.455 351.409C679.758 352.227 679.409 353.409 679.409 354.955V393H672.614ZM710.239 358.091V363.545H691.17V358.091H710.239ZM696.284 349.727H703.08V382.75C703.08 384.068 703.277 385.061 703.67 385.727C704.064 386.379 704.572 386.826 705.193 387.068C705.83 387.295 706.519 387.409 707.261 387.409C707.807 387.409 708.284 387.371 708.693 387.295C709.102 387.22 709.42 387.159 709.648 387.114L710.875 392.727C710.481 392.879 709.92 393.03 709.193 393.182C708.466 393.348 707.557 393.439 706.466 393.455C704.678 393.485 703.011 393.167 701.466 392.5C699.92 391.833 698.67 390.803 697.716 389.409C696.761 388.015 696.284 386.265 696.284 384.159V349.727ZM725.324 393L715.051 358.091H722.074L728.915 383.727H729.256L736.119 358.091H743.142L749.96 383.614H750.301L757.097 358.091H764.119L753.869 393H746.938L739.847 367.795H739.324L732.233 393H725.324ZM780.727 393.773C778.515 393.773 776.515 393.364 774.727 392.545C772.939 391.712 771.523 390.508 770.477 388.932C769.447 387.356 768.932 385.424 768.932 383.136C768.932 381.167 769.311 379.545 770.068 378.273C770.826 377 771.848 375.992 773.136 375.25C774.424 374.508 775.864 373.947 777.455 373.568C779.045 373.189 780.667 372.902 782.318 372.705C784.409 372.462 786.106 372.265 787.409 372.114C788.712 371.947 789.659 371.682 790.25 371.318C790.841 370.955 791.136 370.364 791.136 369.545V369.386C791.136 367.402 790.576 365.864 789.455 364.773C788.348 363.682 786.697 363.136 784.5 363.136C782.212 363.136 780.409 363.644 779.091 364.659C777.788 365.659 776.886 366.773 776.386 368L770 366.545C770.758 364.424 771.864 362.712 773.318 361.409C774.788 360.091 776.477 359.136 778.386 358.545C780.295 357.939 782.303 357.636 784.409 357.636C785.803 357.636 787.28 357.803 788.841 358.136C790.417 358.455 791.886 359.045 793.25 359.909C794.629 360.773 795.758 362.008 796.636 363.614C797.515 365.205 797.955 367.273 797.955 369.818V393H791.318V388.227H791.045C790.606 389.106 789.947 389.97 789.068 390.818C788.189 391.667 787.061 392.371 785.682 392.932C784.303 393.492 782.652 393.773 780.727 393.773ZM782.205 388.318C784.083 388.318 785.689 387.947 787.023 387.205C788.371 386.462 789.394 385.492 790.091 384.295C790.803 383.083 791.159 381.788 791.159 380.409V375.909C790.917 376.152 790.447 376.379 789.75 376.591C789.068 376.788 788.288 376.962 787.409 377.114C786.53 377.25 785.674 377.379 784.841 377.5C784.008 377.606 783.311 377.697 782.75 377.773C781.432 377.939 780.227 378.22 779.136 378.614C778.061 379.008 777.197 379.576 776.545 380.318C775.909 381.045 775.591 382.015 775.591 383.227C775.591 384.909 776.212 386.182 777.455 387.045C778.697 387.894 780.28 388.318 782.205 388.318ZM807.006 393V358.091H813.574V363.636H813.938C814.574 361.758 815.695 360.28 817.301 359.205C818.922 358.114 820.756 357.568 822.801 357.568C823.225 357.568 823.725 357.583 824.301 357.614C824.892 357.644 825.354 357.682 825.688 357.727V364.227C825.415 364.152 824.93 364.068 824.233 363.977C823.536 363.871 822.839 363.818 822.142 363.818C820.536 363.818 819.104 364.159 817.847 364.841C816.604 365.508 815.619 366.439 814.892 367.636C814.165 368.818 813.801 370.167 813.801 371.682V393H807.006ZM845.364 393.705C841.924 393.705 838.962 392.97 836.477 391.5C834.008 390.015 832.098 387.932 830.75 385.25C829.417 382.553 828.75 379.394 828.75 375.773C828.75 372.197 829.417 369.045 830.75 366.318C832.098 363.591 833.977 361.462 836.386 359.932C838.811 358.402 841.644 357.636 844.886 357.636C846.856 357.636 848.765 357.962 850.614 358.614C852.462 359.265 854.121 360.288 855.591 361.682C857.061 363.076 858.22 364.886 859.068 367.114C859.917 369.326 860.341 372.015 860.341 375.182V377.591H832.591V372.5H853.682C853.682 370.712 853.318 369.129 852.591 367.75C851.864 366.356 850.841 365.258 849.523 364.455C848.22 363.652 846.689 363.25 844.932 363.25C843.023 363.25 841.356 363.72 839.932 364.659C838.523 365.583 837.432 366.795 836.659 368.295C835.902 369.78 835.523 371.394 835.523 373.136V377.114C835.523 379.447 835.932 381.432 836.75 383.068C837.583 384.705 838.742 385.955 840.227 386.818C841.712 387.667 843.447 388.091 845.432 388.091C846.72 388.091 847.894 387.909 848.955 387.545C850.015 387.167 850.932 386.606 851.705 385.864C852.477 385.121 853.068 384.205 853.477 383.114L859.909 384.273C859.394 386.167 858.47 387.826 857.136 389.25C855.818 390.659 854.159 391.758 852.159 392.545C850.174 393.318 847.909 393.705 845.364 393.705ZM910.75 358.682C910.508 356.53 909.508 354.864 907.75 353.682C905.992 352.485 903.78 351.886 901.114 351.886C899.205 351.886 897.553 352.189 896.159 352.795C894.765 353.386 893.682 354.205 892.909 355.25C892.152 356.28 891.773 357.455 891.773 358.773C891.773 359.879 892.03 360.833 892.545 361.636C893.076 362.439 893.765 363.114 894.614 363.659C895.477 364.189 896.402 364.636 897.386 365C898.371 365.348 899.318 365.636 900.227 365.864L904.773 367.045C906.258 367.409 907.78 367.902 909.341 368.523C910.902 369.144 912.348 369.962 913.682 370.977C915.015 371.992 916.091 373.25 916.909 374.75C917.742 376.25 918.159 378.045 918.159 380.136C918.159 382.773 917.477 385.114 916.114 387.159C914.765 389.205 912.803 390.818 910.227 392C907.667 393.182 904.568 393.773 900.932 393.773C897.447 393.773 894.432 393.22 891.886 392.114C889.341 391.008 887.348 389.439 885.909 387.409C884.47 385.364 883.674 382.939 883.523 380.136H890.568C890.705 381.818 891.25 383.22 892.205 384.341C893.174 385.447 894.409 386.273 895.909 386.818C897.424 387.348 899.083 387.614 900.886 387.614C902.871 387.614 904.636 387.303 906.182 386.682C907.742 386.045 908.97 385.167 909.864 384.045C910.758 382.909 911.205 381.583 911.205 380.068C911.205 378.689 910.811 377.561 910.023 376.682C909.25 375.803 908.197 375.076 906.864 374.5C905.545 373.924 904.053 373.417 902.386 372.977L896.886 371.477C893.159 370.462 890.205 368.97 888.023 367C885.856 365.03 884.773 362.424 884.773 359.182C884.773 356.5 885.5 354.159 886.955 352.159C888.409 350.159 890.379 348.606 892.864 347.5C895.348 346.379 898.152 345.818 901.273 345.818C904.424 345.818 907.205 346.371 909.614 347.477C912.038 348.583 913.947 350.106 915.341 352.045C916.735 353.97 917.462 356.182 917.523 358.682H910.75ZM940.71 393.705C937.438 393.705 934.581 392.955 932.142 391.455C929.703 389.955 927.809 387.856 926.46 385.159C925.112 382.462 924.438 379.311 924.438 375.705C924.438 372.083 925.112 368.917 926.46 366.205C927.809 363.492 929.703 361.386 932.142 359.886C934.581 358.386 937.438 357.636 940.71 357.636C943.983 357.636 946.839 358.386 949.278 359.886C951.718 361.386 953.612 363.492 954.96 366.205C956.309 368.917 956.983 372.083 956.983 375.705C956.983 379.311 956.309 382.462 954.96 385.159C953.612 387.856 951.718 389.955 949.278 391.455C946.839 392.955 943.983 393.705 940.71 393.705ZM940.733 388C942.854 388 944.612 387.439 946.006 386.318C947.4 385.197 948.43 383.705 949.097 381.841C949.778 379.977 950.119 377.924 950.119 375.682C950.119 373.455 949.778 371.409 949.097 369.545C948.43 367.667 947.4 366.159 946.006 365.023C944.612 363.886 942.854 363.318 940.733 363.318C938.597 363.318 936.824 363.886 935.415 365.023C934.021 366.159 932.983 367.667 932.301 369.545C931.634 371.409 931.301 373.455 931.301 375.682C931.301 377.924 931.634 379.977 932.301 381.841C932.983 383.705 934.021 385.197 935.415 386.318C936.824 387.439 938.597 388 940.733 388ZM971.364 346.455V393H964.568V346.455H971.364ZM1002.62 378.523V358.091H1009.44V393H1002.76V386.955H1002.39C1001.59 388.818 1000.3 390.371 998.528 391.614C996.771 392.841 994.581 393.455 991.96 393.455C989.718 393.455 987.733 392.962 986.006 391.977C984.294 390.977 982.945 389.5 981.96 387.545C980.991 385.591 980.506 383.174 980.506 380.295V358.091H987.301V379.477C987.301 381.856 987.96 383.75 989.278 385.159C990.597 386.568 992.309 387.273 994.415 387.273C995.688 387.273 996.953 386.955 998.21 386.318C999.483 385.682 1000.54 384.72 1001.37 383.432C1002.22 382.144 1002.63 380.508 1002.62 378.523ZM1034.86 358.091V363.545H1015.8V358.091H1034.86ZM1020.91 349.727H1027.7V382.75C1027.7 384.068 1027.9 385.061 1028.3 385.727C1028.69 386.379 1029.2 386.826 1029.82 387.068C1030.45 387.295 1031.14 387.409 1031.89 387.409C1032.43 387.409 1032.91 387.371 1033.32 387.295C1033.73 387.22 1034.05 387.159 1034.27 387.114L1035.5 392.727C1035.11 392.879 1034.55 393.03 1033.82 393.182C1033.09 393.348 1032.18 393.439 1031.09 393.455C1029.3 393.485 1027.64 393.167 1026.09 392.5C1024.55 391.833 1023.3 390.803 1022.34 389.409C1021.39 388.015 1020.91 386.265 1020.91 384.159V349.727ZM1042.38 393V358.091H1049.18V393H1042.38ZM1045.81 352.705C1044.63 352.705 1043.62 352.311 1042.77 351.523C1041.93 350.72 1041.52 349.765 1041.52 348.659C1041.52 347.538 1041.93 346.583 1042.77 345.795C1043.62 344.992 1044.63 344.591 1045.81 344.591C1046.99 344.591 1048 344.992 1048.84 345.795C1049.68 346.583 1050.11 347.538 1050.11 348.659C1050.11 349.765 1049.68 350.72 1048.84 351.523C1048 352.311 1046.99 352.705 1045.81 352.705ZM1073.02 393.705C1069.75 393.705 1066.89 392.955 1064.45 391.455C1062.02 389.955 1060.12 387.856 1058.77 385.159C1057.42 382.462 1056.75 379.311 1056.75 375.705C1056.75 372.083 1057.42 368.917 1058.77 366.205C1060.12 363.492 1062.02 361.386 1064.45 359.886C1066.89 358.386 1069.75 357.636 1073.02 357.636C1076.3 357.636 1079.15 358.386 1081.59 359.886C1084.03 361.386 1085.92 363.492 1087.27 366.205C1088.62 368.917 1089.3 372.083 1089.3 375.705C1089.3 379.311 1088.62 382.462 1087.27 385.159C1085.92 387.856 1084.03 389.955 1081.59 391.455C1079.15 392.955 1076.3 393.705 1073.02 393.705ZM1073.05 388C1075.17 388 1076.92 387.439 1078.32 386.318C1079.71 385.197 1080.74 383.705 1081.41 381.841C1082.09 379.977 1082.43 377.924 1082.43 375.682C1082.43 373.455 1082.09 371.409 1081.41 369.545C1080.74 367.667 1079.71 366.159 1078.32 365.023C1076.92 363.886 1075.17 363.318 1073.05 363.318C1070.91 363.318 1069.14 363.886 1067.73 365.023C1066.33 366.159 1065.3 367.667 1064.61 369.545C1063.95 371.409 1063.61 373.455 1063.61 375.682C1063.61 377.924 1063.95 379.977 1064.61 381.841C1065.3 383.705 1066.33 385.197 1067.73 386.318C1069.14 387.439 1070.91 388 1073.05 388ZM1103.68 372.273V393H1096.88V358.091H1103.4V363.773H1103.84C1104.64 361.924 1105.9 360.439 1107.61 359.318C1109.34 358.197 1111.51 357.636 1114.13 357.636C1116.51 357.636 1118.59 358.136 1120.38 359.136C1122.17 360.121 1123.55 361.591 1124.54 363.545C1125.52 365.5 1126.02 367.917 1126.02 370.795V393H1119.22V371.614C1119.22 369.083 1118.56 367.106 1117.24 365.682C1115.93 364.242 1114.12 363.523 1111.81 363.523C1110.24 363.523 1108.84 363.864 1107.61 364.545C1106.4 365.227 1105.43 366.227 1104.72 367.545C1104.02 368.848 1103.68 370.424 1103.68 372.273ZM1161.29 366.614L1155.13 367.705C1154.87 366.917 1154.46 366.167 1153.9 365.455C1153.36 364.742 1152.62 364.159 1151.68 363.705C1150.74 363.25 1149.56 363.023 1148.15 363.023C1146.23 363.023 1144.62 363.455 1143.34 364.318C1142.05 365.167 1141.4 366.265 1141.4 367.614C1141.4 368.78 1141.84 369.72 1142.7 370.432C1143.56 371.144 1144.96 371.727 1146.88 372.182L1152.43 373.455C1155.64 374.197 1158.03 375.341 1159.61 376.886C1161.18 378.432 1161.97 380.439 1161.97 382.909C1161.97 385 1161.37 386.864 1160.15 388.5C1158.96 390.121 1157.28 391.394 1155.13 392.318C1152.99 393.242 1150.52 393.705 1147.7 393.705C1143.79 393.705 1140.6 392.871 1138.13 391.205C1135.66 389.523 1134.15 387.136 1133.59 384.045L1140.15 383.045C1140.56 384.758 1141.4 386.053 1142.68 386.932C1143.95 387.795 1145.61 388.227 1147.65 388.227C1149.88 388.227 1151.66 387.765 1152.99 386.841C1154.33 385.902 1154.99 384.758 1154.99 383.409C1154.99 382.318 1154.59 381.402 1153.77 380.659C1152.96 379.917 1151.73 379.356 1150.06 378.977L1144.15 377.682C1140.9 376.939 1138.49 375.758 1136.93 374.136C1135.38 372.515 1134.61 370.462 1134.61 367.977C1134.61 365.917 1135.18 364.114 1136.34 362.568C1137.49 361.023 1139.08 359.818 1141.11 358.955C1143.14 358.076 1145.46 357.636 1148.09 357.636C1151.86 357.636 1154.83 358.455 1156.99 360.091C1159.16 361.712 1160.59 363.886 1161.29 366.614Z" fill="#F47209"/>
</svg>
