<svg width="578" height="668" viewBox="0 0 578 668" fill="none" xmlns="http://www.w3.org/2000/svg">
<rect width="578" height="668" fill="white"/>
<path d="M286 9L425.75 91.9459L567.458 171.5L565.5 334L567.458 496.5L425.75 576.054L286 659L146.25 576.054L4.54175 496.5L6.5 334L4.54175 171.5L146.25 91.9459L286 9Z" fill="#003366"/>
<path d="M286 124L376.3 177.596L467.865 229L466.6 334L467.865 439L376.3 490.404L286 544L195.7 490.404L104.135 439L105.4 334L104.135 229L195.7 177.596L286 124Z" fill="white"/>
<path d="M483.382 124L568 171.564V497L209 299.235L483.382 124Z" fill="#F47209"/>
<path d="M209.01 298.983L488.217 452.759L470.987 483.226L195.051 323.914L209.01 298.983Z" fill="#003366"/>
<path d="M208.748 298.053L207.358 335.763L180.976 323.721L208.748 298.053Z" fill="white"/>
</svg>
