<svg width="17" height="38" viewBox="0 0 17 38" fill="none" xmlns="http://www.w3.org/2000/svg">
<path d="M8.38155 0.10376L9.39154 2.00837C9.61861 2.35984 9.8646 2.67094 10.1543 2.96067C11.0038 3.80293 11.7957 4.70187 12.5244 5.65134C14.2357 7.90742 15.39 10.4129 16.2143 13.1225C16.7086 14.7778 16.9771 16.4758 16.9972 18.1928C17.08 23.326 15.3273 27.7336 11.7935 31.3968C11.2187 31.9777 10.5977 32.5106 9.93674 32.9903C9.58667 32.9903 9.4211 32.7208 9.27682 32.4726C9.01407 32.0124 8.83919 31.507 8.76118 30.9824C8.637 30.3614 8.5554 29.7404 8.59561 29.0991V28.8094C8.56722 28.7477 8.25855 0.249811 8.38155 0.10376V0.10376Z" fill="#599636"/>
<path d="M8.38156 0.0408505C8.34017 -0.0422683 8.29878 0.0206645 8.25738 0.0610365C8.27749 0.476631 8.1332 0.847103 7.90732 1.20095C7.65896 1.55243 7.33018 1.82197 7.00022 2.1117C5.16711 3.7052 3.72427 5.63 2.56882 7.78278C1.03137 10.6801 0.238987 13.7851 0.0142826 17.0541C-0.0886083 18.2332 0.385636 22.3939 0.755807 23.5944C1.76579 26.7814 3.57999 29.4519 5.92992 31.7697C6.50705 32.3278 7.1244 32.8455 7.76303 33.343C7.94871 33.343 7.96882 33.1768 8.01139 33.0533C8.0928 32.789 8.15485 32.5192 8.19707 32.2458L8.611 29.1419L8.38156 0.0408505Z" fill="#6CAC48"/>
<path d="M9.39152 34.2514C9.43291 33.7764 9.65998 33.3822 9.90716 32.9891C9.6588 32.8858 9.4743 32.6804 9.33002 32.4513C9.20561 32.2343 9.10262 32.0056 9.02253 31.7685C8.73396 30.8993 8.67246 29.9874 8.58968 29.0992V28.5613C8.48679 28.6444 8.4655 29.3474 8.4655 29.4519C8.40532 30.3906 8.28124 31.3241 8.09414 32.2458C8.03265 32.6187 7.99125 32.9903 7.763 33.3216C7.763 33.3632 7.763 33.4047 7.78311 33.4665C8.15446 34.5636 8.25617 35.681 8.31885 36.8197V37.2353C8.31885 37.7316 8.29874 37.6272 8.70913 37.7934C8.8747 37.8551 9.05919 37.8765 9.22476 38C9.34894 38 9.36905 37.8967 9.36905 37.8136L9.30755 37.1308V35.2262C9.28744 34.8937 9.34894 34.5636 9.39034 34.2525L9.39152 34.2514Z" fill="#C2BFBF"/>
</svg>
